<?xml version="1.0" encoding="utf-8"?>
<!-- Svg Vector Icons : http://www.onlinewebfonts.com/icon -->
<!DOCTYPE svg PUBLIC "-//W3C//DTD SVG 1.1//EN" "http://www.w3.org/Graphics/SVG/1.1/DTD/svg11.dtd">
<svg version="1.1" xmlns="http://www.w3.org/2000/svg" xmlns:xlink="http://www.w3.org/1999/xlink" x="0px" y="0px" viewBox="0 0 1000 1000" enable-background="new 0 0 1000 1000" xml:space="preserve">
<metadata> Svg Vector Icons : http://www.onlinewebfonts.com/icon </metadata>
<g><g><path d="M837.3,816.4c26.2,120.4-104.5,146.5-162.1,130.8c-57.6-15.7-175-18.3-175-18.3s-117.8,2.6-175.3,18.3c-57.6,15.8-188.4-10.4-162.3-130.8C188.7,696.1,303.9,701.3,335.4,539c31.5-162.3,164.9-151.8,164.9-151.8S633.4,376.7,664.9,539C696.2,701.3,811.2,696,837.3,816.4z M621,376.6c70.9,20.5,149.1-35.5,174.9-124.9c25.8-89.4-10.7-178.4-81.5-198.8c-70.9-20.5-149.1,35.5-174.9,124.9C513.7,267.1,550.2,356.2,621,376.6z M914.7,344.1c-68.2-27.9-152,19.4-187.2,105.6c-35.2,86.2-8.4,178.6,59.9,206.4c68.2,27.8,152-19.4,187.2-105.6C1009.7,464.2,982.9,371.9,914.7,344.1z M378.9,376.6c70.9-20.5,107.3-109.5,81.5-198.8C434.6,88.4,356.2,32.5,285.5,52.9C214.7,73.4,178.2,162.4,204,251.8C229.8,341.1,308,397.1,378.9,376.6z M212.7,656c68.2-27.9,95-120.3,59.9-206.4c-35.2-86.1-119-133.4-187.2-105.6c-68.2,27.9-95,120.3-59.9,206.4C60.6,636.6,144.4,683.9,212.7,656z"/></g><g></g><g></g><g></g><g></g><g></g><g></g><g></g><g></g><g></g><g></g><g></g><g></g><g></g><g></g><g></g></g>
</svg>